:FULLY-SPECIFIED
:FORCE-ALL-JOINTS-BE-3DOF
:DEGREES
204
root 4.8066 15.1466 -25.4293 7.08793 0.053966 5.64515
lfemur 7.49089 -8.87786 2.07247
ltibia 3.63418 -0 0
lfoot -32.2033 -16.7382 -0.818711
ltoes 55.9885 -0 0
rfemur -29.3215 -18.7467 -8.96874
rtibia 49.4582 -0 0
rfoot -28.0059 15.8306 0.420835
rtoes 58.8779 -0 0
lowerback -2.63703 -1.88337 -1.06285
upperback -0.672628 -2.44883 -7.56563
thorax 0.48546 -1.22791 -7.34968
lowerneck -11.3983 0.372796 5.84756
upperneck 3.66982 -0.543668 2.82967
head 3.21099 -0.0538807 -0.143981
lclavicle 1.81317e-14 9.60056e-15 2.29543e-30
lhumerus -58.5828 -45.0289 115.03
lradius 54.58 -0 0
lwrist 24.8044 0 0
lhand 39.879 30.5036 -0.211919
lfingers 7.12502 -0 0
lthumb 62.4086 42.3677 -0.0307821
rclavicle 1.81317e-14 9.60056e-15 2.29543e-30
rhumerus -11.6007 -6.28521 -16.9446
rradius 84.862 -0 0
rwrist -21.5565 0 0
rhand -7.46177 -36.7735 9.78464
rfingers 7.12502 -0 0
rthumb 7.93617 46.8591 -24.5516
205
root 4.78964 15.1227 -25.4464 7.14285 -0.193964 5.62703
lfemur 7.45062 -8.35121 1.92412
ltibia 4.01535 -0 0
lfoot -32.8936 -15.7937 -0.727416
ltoes 55.3452 -0 0
rfemur -29.9764 -19.1392 -8.74607
rtibia 50.0625 -0 0
rfoot -27.7856 16.3846 0.326496
rtoes 59.1369 -0 0
lowerback -2.47115 -1.85386 -1.03711
upperback -0.676252 -2.41858 -7.5313
thorax 0.394678 -1.21531 -7.3186
lowerneck -11.2759 0.475704 6.04587
upperneck 3.62206 -0.415166 2.71006
head 3.17228 0.0052654 -0.208542
lclavicle 1.44761e-14 1.08607e-14 1.96976e-30
lhumerus -58.8341 -45.216 115.306
lradius 54.6199 -0 0
lwrist 25.0649 0 0
lhand 39.5677 30.3627 -0.205818
lfingers 7.12502 -0 0
lthumb 62.1452 42.526 -0.0301645
rclavicle 1.44761e-14 1.08607e-14 1.96976e-30
rhumerus -10.9349 -11.1894 -16.1404
rradius 81.8112 -0 0
rwrist -21.6654 0 0
rhand -12.8754 -40.6336 9.62462
rfingers 7.12502 -0 0
rthumb 2.32718 53.7833 -22.8463
206
root 4.77452 15.1012 -25.4636 7.2067 -0.389507 5.57896
lfemur 7.30196 -7.75103 1.82044
ltibia 4.49874 -0 0
lfoot -33.4895 -14.8529 -0.619963
ltoes 54.556 -0 0
rfemur -30.5795 -19.505 -8.49735
rtibia 50.6025 -0 0
rfoot -27.5874 16.872 0.235152
rtoes 59.3761 -0 0
lowerback -2.30554 -1.82651 -1.00479
upperback -0.679138 -2.39083 -7.47559
thorax 0.305114 -1.20408 -7.26927
lowerneck -11.1626 0.568194 6.21816
upperneck 3.57006 -0.297189 2.59231
head 3.13385 0.0589344 -0.268596
lclavicle 1.10471e-14 1.1972e-14 1.58953e-30
lhumerus -59.0585 -45.3736 115.58
lradius 54.6721 -0 0
lwrist 25.2924 0 0
lhand 39.2114 30.1956 -0.192358
lfingers 7.12502 -0 0
lthumb 61.8393 42.6723 -0.0283547
rclavicle 1.10471e-14 1.1972e-14 1.58953e-30
rhumerus -10.4053 -15.7535 -15.5792
rradius 79.0232 -0 0
rwrist -21.7899 0 0
rhand -18.639 -44.5775 9.101
rfingers 7.12502 -0 0
rthumb -3.07523 60.5811 -20.4703
207
root 4.76124 15.0825 -25.4807 7.28081 -0.530119 5.4978
lfemur 7.0375 -7.08109 1.76797
ltibia 5.08715 -0 0
lfoot -33.9782 -13.929 -0.500457
ltoes 53.6149 -0 0
rfemur -31.12 -19.8412 -8.2231
rtibia 51.0623 -0 0
rfoot -27.423 17.2886 0.151836
rtoes 59.5946 -0 0
lowerback -2.14235 -1.80119 -0.965175
upperback -0.681349 -2.36524 -7.39701
thorax 0.217893 -1.194 -7.20072
lowerneck -11.0609 0.649971 6.36097
upperneck 3.51407 -0.190091 2.4771
head 3.09616 0.106973 -0.323384
lclavicle 7.92751e-15 1.29063e-14 1.18519e-30
lhumerus -59.2514 -45.4976 115.847
lradius 54.7383 -0 0
lwrist 25.4823 0 0
lhand 38.807 30.0002 -0.170991
lfingers 7.12502 -0 0
lthumb 61.4877 42.8039 -0.0252501
rclavicle 7.92751e-15 1.29063e-14 1.18519e-30
rhumerus -9.98679 -19.8939 -15.2644
rradius 76.5551 -0 0
rwrist -21.9349 0 0
rhand -24.7215 -48.5413 8.17325
rfingers 7.12502 -0 0
rthumb -8.16614 67.1884 -17.4538
208
root 4.7498 15.067 -25.4976 7.36643 -0.613227 5.38047
lfemur 6.65026 -6.34475 1.77265
ltibia 5.78324 -0 0
lfoot -34.3474 -13.0347 -0.373558
ltoes 52.5163 -0 0
rfemur -31.5869 -20.1452 -7.92388
rtibia 51.4262 -0 0
rfoot -27.3039 17.6303 0.0816294
rtoes 59.7914 -0 0
lowerback -1.98376 -1.77773 -0.917544
upperback -0.682948 -2.34146 -7.29406
thorax 0.134139 -1.18485 -7.11197
lowerneck -10.9736 0.720748 6.47081
upperneck 3.45433 -0.0942249 2.36509
head 3.05969 0.149231 -0.372145
lclavicle 5.20013e-15 1.36356e-14 7.90455e-31
lhumerus -59.4084 -45.5836 116.105
lradius 54.8205 -0 0
lwrist 25.6305 0 0
lhand 38.3514 29.7744 -0.14129
lfingers 7.12502 -0 0
lthumb 61.0872 42.9179 -0.0208003
rclavicle 5.20013e-15 1.36356e-14 7.90455e-31
rhumerus -9.65747 -23.5285 -15.2054
rradius 74.4642 -0 0
rwrist -22.1052 0 0
rhand -31.09 -52.4525 6.8106
rfingers 7.12502 -0 0
rthumb -12.8675 73.5739 -13.8417
209
root 4.7402 15.0549 -25.514 7.46471 -0.636223 5.22389
lfemur 6.13362 -5.54496 1.83985
ltibia 6.58971 -0 0
lfoot -34.5848 -12.1829 -0.244329
ltoes 51.2545 -0 0
rfemur -31.9693 -20.4145 -7.60034
rtibia 51.6785 -0 0
rfoot -27.2416 17.8928 0.0296265
rtoes 59.9653 -0 0
lowerback -1.83194 -1.756 -0.861177
upperback -0.683996 -2.31913 -7.16524
thorax 0.0549743 -1.17639 -7.00206
lowerneck -10.9031 0.780234 6.54419
upperneck 3.39108 -0.0099383 2.25697
head 3.02492 0.185559 -0.414117
lclavicle 2.94771e-15 1.41318e-14 4.40058e-31
lhumerus -59.525 -45.6275 116.35
lradius 54.9204 -0 0
lwrist 25.7323 0 0
lhand 37.8412 29.516 -0.102953
lfingers 7.12502 -0 0
lthumb 60.6346 43.0115 -0.015023
rclavicle 2.94771e-15 1.41318e-14 4.40058e-31
rhumerus -9.39999 -26.5758 -15.4151
rradius 72.8077 -0 0
rwrist -22.3058 0 0
rhand -37.7145 -56.2326 4.9945
rfingers 7.12502 -0 0
rthumb -17.1259 79.7397 -9.68841
210
root 4.73244 15.0465 -25.5299 7.57664 -0.596458 5.02505
lfemur 5.48133 -4.68412 1.97434
ltibia 7.50925 -0 0
lfoot -34.6784 -11.3861 -0.118048
ltoes 49.8236 -0 0
rfemur -32.2558 -20.6468 -7.25324
rtibia 51.8034 -0 0
rfoot -27.2477 18.0721 0.000820362
rtoes 60.1154 -0 0
lowerback -1.68904 -1.73584 -0.795353
upperback -0.684556 -2.29792 -7.00907
thorax -0.0184764 -1.16842 -6.87003
lowerneck -10.8521 0.828129 6.57766
upperneck 3.32456 0.0624225 2.15341
head 2.99232 0.215807 -0.448538
lclavicle 1.25301e-15 1.43668e-14 1.67097e-31
lhumerus -59.5966 -45.6249 116.578
lradius 55.0398 -0 0
lwrist 25.7836 0 0
lhand 37.2732 29.2228 -0.0558441
lfingers 7.12502 -0 0
lthumb 60.1266 43.082 -0.00802057
rclavicle 1.25301e-15 1.43668e-14 1.67097e-31
rhumerus -9.20378 -28.9552 -15.9074
rradius 71.6428 -0 0
rwrist -22.5416 0 0
rhand -44.573 -59.7999 2.72057
rfingers 7.12502 -0 0
rthumb -20.9053 85.718 -5.05378
